<svg aria-hidden="true" style="width:0;height:0;position:absolute;overflow:hidden" xmlns="http://www.w3.org/2000/svg"><defs><symbol id="icon-shopping" viewBox="0 0 32 32"><path stroke-linejoin="round" stroke-linecap="round" stroke-width="3.2" d="M12 29.333a1.333 1.333 0 0 0 0-2.666 1.333 1.333 0 0 0 0 2.666zm14.667 0a1.333 1.333 0 0 0 0-2.666 1.333 1.333 0 0 0 0 2.666z"/><path stroke-linejoin="round" stroke-linecap="round" stroke-width="2.56" d="M1.333 1.333h5.334l3.573 17.854a2.672 2.672 0 0 0 2.616 2.146l.054-.001h-.003H25.917a2.668 2.668 0 0 0 2.613-2.129l.003-.017 2.134-11.187H8"/></symbol><symbol id="icon-youtube" viewBox="0 0 32 32"><path d="M24.24 6c-1.36-.08-4.16-.16-8.4-.16h-.56c-4.08 0-6.8.08-8.16.24-1.84.16-3.12.64-3.84 1.28-.64.56-1.12 1.6-1.28 2.96-.08.88-.16 2.72-.16 5.52v.4c0 2.64.08 4.48.24 5.36.24 1.28.64 2.24 1.44 2.8.8.64 2.16 1.04 4.08 1.2 1.36.08 4.16.16 8.4.16h.56c4.08 0 6.8-.08 8.16-.24 1.84-.16 3.12-.64 3.84-1.28.64-.56 1.12-1.6 1.28-2.96.08-.88.16-2.72.16-5.52v-.4c0-2.64-.08-4.48-.24-5.36-.24-1.28-.64-2.24-1.44-2.8-.8-.64-2.16-1.04-4.08-1.2zm-3.12 9.84-8.8 5.28V10.56l8.8 5.28z"/></symbol><symbol id="icon-instagram" viewBox="0 0 32 32"><path d="M28.717 10.756a9.258 9.258 0 0 0-.617-3.209l.021.063a6.585 6.585 0 0 0-3.698-3.722l-.044-.015a9.211 9.211 0 0 0-3.097-.596h-.01c-1.368-.06-1.803-.077-5.273-.077-3.472 0-3.917 0-5.275.077a9.378 9.378 0 0 0-3.171.618l.064-.022A6.58 6.58 0 0 0 3.89 7.566l-.015.044a9.114 9.114 0 0 0-.595 3.092v.009c-.061 1.367-.08 1.8-.08 5.265 0 3.467 0 3.908.08 5.265a9.336 9.336 0 0 0 .616 3.168l-.022-.064a6.585 6.585 0 0 0 3.701 3.719l.044.015c.917.37 1.98.602 3.091.64h.016c1.368.06 1.801.079 5.273.079s3.916 0 5.275-.08a9.377 9.377 0 0 0 3.171-.616l-.064.022a6.595 6.595 0 0 0 3.727-3.692l.016-.044a9.15 9.15 0 0 0 .596-3.094v-.01c.061-1.365.08-1.799.08-5.267-.003-3.465-.003-3.904-.083-5.263zM15.989 22.531h-.007a6.565 6.565 0 0 1-6.565-6.56 6.565 6.565 0 0 1 6.565-6.561h.012a6.567 6.567 0 0 1 6.567 6.56 6.567 6.567 0 0 1-6.567 6.561h-.006zm6.835-11.835a1.53 1.53 0 1 1 0-3.06 1.53 1.53 0 1 1 0 3.06z"/><path d="M15.992 19.976a4.004 4.004 0 0 0 0-8.008 4.004 4.004 0 0 0 0 8.008z"/></symbol><symbol id="icon-facebook" viewBox="0 0 32 32"><path d="M19.52 4.64h.96v3.6h-1.2c-.48 0-.96 0-1.2.24s-.24.48-.24 1.04v1.28h2.64v3.04h-2.64v13.2h-4.08V13.76H11.6v-3.04h2.16V9.68c0-1.76.24-3.04.72-3.6.72-1.04 2.16-1.52 4.32-1.52.24.08.48.08.72.08z"/></symbol><symbol id="icon-logo" viewBox="0 0 32 32"><path d="M29.082.314H25.052a2.22 2.22 0 0 0-2.22 2.195v3.929a2.22 2.22 0 0 0 2.22 2.196h4.05a2.22 2.22 0 0 0 2.22-2.195V2.51a2.22 2.22 0 0 0-2.22-2.196h-.021.001zM6.73 23.04H2.412C1.08 23.04 0 24.024 0 25.236v3.928c0 1.214 1.08 2.196 2.412 2.196h4.32c1.33 0 2.41-.982 2.41-2.196v-3.928c0-1.214-1.08-2.196-2.412-2.196zm-.48-11.46H2.24c-1.238 0-2.24.986-2.24 2.2v3.928a2.22 2.22 0 0 0 2.22 2.196h4.05a2.22 2.22 0 0 0 2.22-2.195V13.78c0-1.214-1.004-2.196-2.24-2.196zm11.516 11.4h-4.01c-1.236 0-2.24.98-2.24 2.194v3.928a2.22 2.22 0 0 0 2.22 2.196h4.05a2.22 2.22 0 0 0 2.22-2.195v-3.929a2.22 2.22 0 0 0-2.22-2.196h-.021.001zM6.25.086H2.24C1.002.086 0 1.07 0 2.282V6.21a2.22 2.22 0 0 0 2.22 2.196h4.05a2.22 2.22 0 0 0 2.22-2.195V2.282C8.49 1.07 7.486.086 6.25.086zm11.826 11.612h-4.01c-1.236 0-2.24.982-2.24 2.194v3.93a2.22 2.22 0 0 0 2.22 2.196h4.03c1.238 0 2.24-.984 2.24-2.196v-3.93c0-1.212-1.002-2.194-2.24-2.194zM29.334 22.98h-4.01c-1.238 0-2.24.98-2.24 2.194v3.928a2.22 2.22 0 0 0 2.22 2.196h4.05a2.22 2.22 0 0 0 2.22-2.195v-3.929c0-1.214-1.004-2.196-2.24-2.196zM17.59.224h-4.008c-1.238 0-2.24.982-2.24 2.196v3.928a2.22 2.22 0 0 0 2.22 2.196H17.61a2.22 2.22 0 0 0 2.22-2.195V2.42c0-1.214-1.002-2.196-2.24-2.196zm11.454 11.702h-4.01c-1.236 0-2.24.982-2.24 2.196v3.928a2.22 2.22 0 0 0 2.22 2.196h4.05a2.22 2.22 0 0 0 2.22-2.195v-3.929c0-1.214-1.004-2.196-2.24-2.196z"/></symbol><symbol id="icon-menu" viewBox="0 0 32 32"><path d="M2.667 7.993c0-.733.595-1.327 1.327-1.327h10.68a1.327 1.327 0 1 1 0 2.654H3.994a1.327 1.327 0 0 1-1.327-1.327zm0 8.007c0-.733.595-1.327 1.327-1.327h24.013a1.327 1.327 0 1 1 0 2.654H3.994A1.327 1.327 0 0 1 2.667 16zm1.326 6.68a1.327 1.327 0 1 0 0 2.654h16.013a1.327 1.327 0 1 0 0-2.654H3.993z"/></symbol><symbol id="icon-close" viewBox="0 0 32 32"><path stroke-linejoin="round" stroke-linecap="round" stroke-width="3.429" d="M24 8 8 24M8 8l16 16"/></symbol><symbol id="icon-check1" viewBox="0 0 40 32"><path d="M33.784 1.02A3.668 3.668 0 0 1 40 3.601v.003l.001.095c0 .965-.368 1.844-.972 2.504l.003-.003-19.576 24.616a3.67 3.67 0 0 1-2.702 1.182c-.495 0-.967-.098-1.398-.275l.024.009a3.689 3.689 0 0 1-1.224-.816L1.172 17.864a3.706 3.706 0 0 1-.895-4.121l-.009.025a3.708 3.708 0 0 1 3.43-2.312h.053-.003A3.653 3.653 0 0 1 6.37 12.63l.002.002L16.648 22.96l17.04-21.832a1.29 1.29 0 0 1 .1-.108h-.004z"/></symbol><symbol id="icon-checkbox" viewBox="0 0 32 32"><path fill="none" stroke="#a1c487" style="stroke:var(--color1,#a1c487)" stroke-width="3" d="M8 1.5h16A6.5 6.5 0 0 1 30.5 8v16a6.5 6.5 0 0 1-6.5 6.5H8A6.5 6.5 0 0 1 1.5 24V8A6.5 6.5 0 0 1 8 1.5z"/></symbol><symbol id="icon-checked" viewBox="0 0 32 32"><path fill="#a1c487" style="fill:var(--color1,#a1c487)" d="M19.806 10.526a1.2 1.2 0 1 1 1.985 1.352l.003-.004-6.51 9.6a1.202 1.202 0 0 1-1.983.004l-.003-.004-3.092-4.56a1.201 1.201 0 0 1 1.985-1.352l.003.004 2.098 3.096 5.514-8.136z"/></symbol><symbol id="icon-arrow" viewBox="0 0 32 32"><path stroke-linejoin="round" stroke-width="2.43" d="M27.455 20.009 16 8.554 4.545 20.009l3.437 3.436 8.019-8.019 8.018 8.019z"/></symbol><symbol id="icon-order" viewBox="0 0 14 15"><path d="M14 2.15 11.926.078v10.37L1.556.077 0 1.632l10.37 10.37H0l2.074 2.075H14V2.15Z"/></symbol><symbol id="icon-arrow-down" viewBox="0 0 32 32"><path d="M16 26.88C9.984 26.88 5.12 22.016 5.12 16S9.984 5.12 16 5.12 26.88 9.984 26.88 16 22.016 26.88 16 26.88zM16 6.4c-5.312 0-9.6 4.288-9.6 9.6s4.288 9.6 9.6 9.6 9.6-4.288 9.6-9.6-4.288-9.6-9.6-9.6z"/><path d="m16 22.016-6.208-6.208.896-.896L16 20.224l5.312-5.312.896.896z"/><path d="M15.36 10.24h1.28v10.88h-1.28z"/></symbol></defs></svg>